<?xml version="1.0" encoding="utf-8"?>
<!-- Generator: Adobe Illustrator 22.1.0, SVG Export Plug-In . SVG Version: 6.00 Build 0)  -->
<svg version="1.1" id="Layer_1" xmlns="http://www.w3.org/2000/svg" xmlns:xlink="http://www.w3.org/1999/xlink" x="0px" y="0px"
	 viewBox="0 0 51.7 63" style="enable-background:new 0 0 51.7 63;" xml:space="preserve">
<style type="text/css">
	.st0{fill:#FFFFFF;}
</style>
<path class="st0" d="M12.5,27.9h-2.3c-1,0.1-2.1,0-3.1-0.3c-0.6-0.2-1.1-0.6-1.5-1.1c-0.9-1.1-1.3-2.5-1.2-3.9
	c-0.1-1.6,0.4-3.1,1.4-4.3c1-1.1,2.4-1.7,3.8-1.6c1,0,2,0.2,2.9,0.7L12.5,27.9z M12.5,13.5c-1.1-0.4-2.3-0.6-3.4-0.6
	c-2.4-0.1-4.8,0.9-6.5,2.6c-1.7,1.8-2.6,4.2-2.5,6.6c-0.1,2.5,0.7,5,2.4,6.9c1.7,1.7,4.1,2.7,6.5,2.6h7.8V4.2h-4.3L12.5,13.5
	L12.5,13.5z"/>
<path class="st0" d="M31.9,26.1c-0.8,1.3-2.3,2.1-3.8,2.2c-0.9,0.1-1.8-0.2-2.5-0.9c-0.6-1.1-0.8-2.4-0.7-3.6V13.3h-4.2v10.4
	c-0.1,1.7,0.2,3.3,0.8,4.9c0.5,1,1.3,1.8,2.3,2.4c1,0.6,2.1,0.9,3.3,0.9c1,0,2.1-0.3,3-0.7c0.7-0.3,1.4-0.8,2-1.3v1.7h4.2V13.3h-4.2
	L31.9,26.1L31.9,26.1z"/>
<path class="st0" d="M15.4,39c1-0.1,2,0.3,2.7,1c0.6,0.7,1,1.6,1.1,2.6h-7.9c0.2-1,0.7-1.8,1.3-2.5C13.4,39.3,14.4,38.9,15.4,39
	 M15.4,35.2c-2.4-0.1-4.6,0.9-6.2,2.6c-1.6,1.9-2.5,4.3-2.4,6.8c0,1.7,0.4,3.4,1.1,4.9c0.7,1.4,1.7,2.5,3,3.4
	c1.5,0.9,3.2,1.3,4.9,1.3c1.3,0,2.6-0.1,3.8-0.5c1.2-0.4,2.3-0.9,3.3-1.6l0.2-0.1v-4.4l-0.6,0.5c-1.8,1.3-3.9,2.1-6.1,2.1
	c-2.8,0.2-5.1-2-5.3-4.7c0,0,0,0,0,0h12.3v-0.8c0.1-2.5-0.7-4.9-2.2-6.8C19.8,36,17.7,35.1,15.4,35.2"/>
<path class="st0" d="M45.1,25.4v-8.2h2.6l0.9-3.9h-3.5V9.1l-7.3,7.2v0.9h3.1v7.4c0,1.1,0,2.2,0.2,3.3c0.1,0.5,0.3,1,0.6,1.5
	c0.2,0.4,0.5,0.7,0.9,1c0.6,0.5,1.2,0.9,1.9,1.1l1-4.4C45.2,26.7,45,26.1,45.1,25.4"/>
<path class="st0" d="M41.1,38.6c-0.5-1-1.3-1.9-2.3-2.5c-1-0.6-2.1-0.9-3.3-0.9c-1.8,0-3.6,0.7-4.9,2v-1.7h-4.3v18.3h4.3V41.1
	c0.8-1.3,2.2-2.2,3.8-2.2c0.9-0.1,1.8,0.3,2.4,1c0.6,1.1,0.9,2.4,0.8,3.6v10.4h1.8l2.4-10.7C42,41.6,41.7,40,41.1,38.6"/>
<rect x="12.2" y="31.2" transform="matrix(0.2167 -0.9762 0.9762 0.2167 4.0502 68.0553)" class="st0" width="64.4" height="0.5"/>
</svg>
