<svg xmlns="http://www.w3.org/2000/svg" width="51.676" height="63.008" viewBox="0 0 51.676 63.008"><path d="M12.461,71.8H10.15a11.1,11.1,0,0,1-3.105-.289,3.813,3.813,0,0,1-1.539-1.073,5.7,5.7,0,0,1-1.222-3.928,6.224,6.224,0,0,1,1.435-4.321A4.88,4.88,0,0,1,9.567,60.61a6.8,6.8,0,0,1,2.9.674Zm0-14.38a11.236,11.236,0,0,0-3.438-.6,8.719,8.719,0,0,0-6.49,2.616A9.219,9.219,0,0,0,0,66.084a9.636,9.636,0,0,0,2.423,6.866,8.537,8.537,0,0,0,6.5,2.58h7.812V48.1H12.471v9.315Z" transform="translate(0.014 -43.895)"/><path d="M246.852,165.006a4.635,4.635,0,0,1-3.831,2.169,2.862,2.862,0,0,1-2.467-.936,6.563,6.563,0,0,1-.717-3.639V152.2h-4.242v10.445a11.4,11.4,0,0,0,.761,4.9,5.789,5.789,0,0,0,2.266,2.414,6.321,6.321,0,0,0,3.263.883,6.973,6.973,0,0,0,3-.708,8.444,8.444,0,0,0,1.981-1.312v1.714h4.243V152.2h-4.243v12.806Z" transform="translate(-214.976 -138.889)"/><path d="M86.752,405.886a3.568,3.568,0,0,1,2.7,1.014,4.252,4.252,0,0,1,1.094,2.554H82.6a5.013,5.013,0,0,1,1.347-2.545,3.879,3.879,0,0,1,2.806-1.024m0-3.788a7.966,7.966,0,0,0-6.185,2.641,9.763,9.763,0,0,0-2.371,6.779,10.363,10.363,0,0,0,1.119,4.89,9.133,9.133,0,0,0,3,3.377,8.712,8.712,0,0,0,4.907,1.269,13.753,13.753,0,0,0,3.805-.472,12.25,12.25,0,0,0,3.289-1.575l.175-.114v-4.365l-.612.455a10.087,10.087,0,0,1-6.115,2.063,5.011,5.011,0,0,1-5.292-4.732H94.8v-.825a10.2,10.2,0,0,0-2.169-6.8,7.346,7.346,0,0,0-5.878-2.6" transform="translate(-71.346 -366.928)"/><path d="M439,120.878v-8.213h2.641l.875-3.9H439V104.6l-7.3,7.173v.892h3.054v7.409a16.171,16.171,0,0,0,.228,3.333,5.361,5.361,0,0,0,.586,1.478,4.359,4.359,0,0,0,.892,1.033,5.922,5.922,0,0,0,1.942,1.128l.974-4.365a3.666,3.666,0,0,1-.376-1.8" transform="translate(-393.927 -95.453)"/><path d="M315.975,405.584a5.93,5.93,0,0,0-2.292-2.484,6.191,6.191,0,0,0-3.254-.9,7.1,7.1,0,0,0-4.907,2.03v-1.7H301.2v18.334h4.321V408.071a4.576,4.576,0,0,1,3.8-2.2,2.739,2.739,0,0,1,2.432,1,6.529,6.529,0,0,1,.752,3.621v10.392h1.828l2.414-10.742a10.758,10.758,0,0,0-.77-4.549" transform="translate(-274.842 -367.021)"/><rect width="64.423" height="0.533" transform="translate(37.194 62.892) rotate(-77.484)"/></svg>