<svg xmlns="http://www.w3.org/2000/svg" xmlns:xlink="http://www.w3.org/1999/xlink" width="1920" height="140" viewBox="0 0 1920 140">
  <defs>
    <clipPath id="clip-path">
      <rect id="Rectangle_142" data-name="Rectangle 142" width="1920" height="140" transform="translate(0 3833)" fill="#fff" stroke="#707070" stroke-width="1"/>
    </clipPath>
    <clipPath id="clip-path-2"/>
  </defs>
  <g id="Mask_Group_10" data-name="Mask Group 10" transform="translate(0 -3833)" clip-path="url(#clip-path)">
    <g id="Group_384" data-name="Group 384">
      <g id="Group_365" data-name="Group 365" transform="translate(814.5 3832.74)">
        <g id="Group_364" data-name="Group 364" clip-path="url(#clip-path-2)">
          <path id="Path_1444" data-name="Path 1444" d="M269.821,17.583C263.511,9.341,256.357,0,242.007,0s-21.5,9.343-27.806,17.583c-5.743,7.5-10.7,13.978-20.509,13.978s-14.774-6.478-20.517-13.981C166.862,9.341,159.712,0,145.359,0s-21.5,9.341-27.814,17.581c-5.746,7.5-10.706,13.981-20.519,13.981S82.249,25.083,76.5,17.583C70.191,9.341,63.038,0,48.684,0S27.175,9.341,20.865,17.581C15.119,25.083,10.159,31.561.343,31.561V42.052c9.811,0,14.771,6.478,20.514,13.978,3.852,5.034,8.03,10.464,13.957,13.941-5.924,3.474-10.1,8.9-13.949,13.931C15.119,91.4,10.159,97.882.343,97.882v10.493c9.811,0,14.771,6.476,20.514,13.978,6.31,8.24,13.463,17.581,27.814,17.581s21.5-9.341,27.806-17.583c5.74-7.5,10.7-13.975,20.509-13.975s14.774,6.476,20.517,13.978c6.313,8.24,13.463,17.581,27.817,17.581s21.507-9.341,27.817-17.581c5.743-7.5,10.7-13.978,20.517-13.978s14.776,6.476,20.522,13.978c6.31,8.24,13.466,17.581,27.822,17.581s21.507-9.341,27.817-17.581c5.746-7.5,10.706-13.978,20.524-13.978V97.882c-9.816,0-14.774-6.478-20.517-13.978-3.852-5.034-8.03-10.464-13.957-13.941,5.924-3.474,10.1-8.9,13.949-13.931,5.746-7.5,10.706-13.981,20.524-13.981V31.561c-9.816,0-14.774-6.478-20.517-13.978m-76.129,80.3c-9.813,0-14.774-6.478-20.517-13.981-3.858-5.037-8.038-10.472-13.975-13.946,5.916-3.477,10.086-8.9,13.936-13.925,5.743-7.5,10.7-13.978,20.517-13.978s14.776,6.478,20.522,13.978c3.855,5.034,8.033,10.467,13.965,13.944-5.919,3.477-10.092,8.9-13.939,13.931-5.743,7.5-10.7,13.978-20.509,13.978m-96.667,0C87.209,97.882,82.249,91.4,76.5,83.9c-3.855-5.034-8.033-10.467-13.965-13.944,5.919-3.474,10.092-8.9,13.939-13.931,5.74-7.5,10.7-13.978,20.509-13.978S111.759,48.53,117.5,56.033c3.858,5.037,8.038,10.472,13.975,13.946-5.916,3.477-10.086,8.9-13.933,13.923-5.746,7.5-10.706,13.981-20.519,13.981m27.817-74.714c5.743-7.5,10.7-13.978,20.517-13.978s14.774,6.478,20.517,13.978c3.742,4.887,7.791,10.144,13.447,13.626-5.675,3.485-9.734,8.752-13.484,13.65-5.743,7.5-10.706,13.978-20.519,13.978S130.546,57.944,124.8,50.445c-3.742-4.884-7.791-10.141-13.447-13.626,5.677-3.482,9.737-8.752,13.487-13.65M28.154,50.445c-3.742-4.89-7.8-10.155-13.463-13.637,5.669-3.485,9.724-8.747,13.469-13.637,5.746-7.5,10.709-13.981,20.524-13.981S63.46,15.669,69.206,23.171C72.948,28.056,77,33.313,82.659,36.8c-5.675,3.482-9.732,8.752-13.479,13.647-5.743,7.5-10.7,13.978-20.509,13.978S33.9,57.944,28.154,50.445M69.18,116.766c-5.74,7.5-10.7,13.978-20.509,13.978S33.9,124.265,28.154,116.766c-3.742-4.89-7.8-10.155-13.463-13.637,5.667-3.482,9.724-8.747,13.469-13.637,5.746-7.5,10.709-13.981,20.524-13.981S63.46,81.99,69.206,89.492C72.948,94.377,77,99.634,82.659,103.118c-5.675,3.482-9.732,8.752-13.479,13.647m96.659,0c-5.743,7.5-10.706,13.978-20.519,13.978s-14.774-6.478-20.517-13.978c-3.742-4.884-7.791-10.141-13.45-13.626,5.68-3.482,9.74-8.752,13.49-13.65,5.743-7.5,10.7-13.978,20.517-13.978s14.774,6.478,20.517,13.978c3.742,4.887,7.791,10.144,13.45,13.626-5.677,3.485-9.737,8.752-13.487,13.65M262.523,89.49c3.745,4.892,7.8,10.155,13.463,13.637-5.669,3.485-9.724,8.747-13.471,13.639-5.746,7.5-10.7,13.978-20.519,13.978s-14.779-6.478-20.524-13.981c-3.742-4.884-7.794-10.141-13.453-13.626,5.675-3.482,9.732-8.75,13.479-13.647,5.74-7.5,10.7-13.978,20.509-13.978S256.78,81.99,262.523,89.49m-.008-39.045c-5.746,7.5-10.7,13.978-20.519,13.978s-14.779-6.478-20.524-13.978c-3.742-4.887-7.794-10.144-13.453-13.629,5.675-3.482,9.732-8.75,13.479-13.647,5.74-7.5,10.7-13.978,20.509-13.978s14.774,6.478,20.517,13.978c3.745,4.892,7.8,10.155,13.463,13.637-5.669,3.485-9.727,8.747-13.471,13.639" transform="translate(0.558)" fill="#161615"/>
        </g>
      </g>
      <path id="Path_1445" data-name="Path 1445" d="M269.821,17.583C263.511,9.341,256.357,0,242.007,0s-21.5,9.343-27.806,17.583c-5.743,7.5-10.7,13.978-20.509,13.978s-14.774-6.478-20.517-13.981C166.862,9.341,159.712,0,145.359,0s-21.5,9.341-27.814,17.581c-5.746,7.5-10.706,13.981-20.519,13.981S82.249,25.083,76.5,17.583C70.191,9.341,63.038,0,48.684,0S27.175,9.341,20.865,17.581C15.119,25.083,10.159,31.561.343,31.561V42.052c9.811,0,14.771,6.478,20.514,13.978,3.852,5.034,8.03,10.464,13.957,13.941-5.924,3.474-10.1,8.9-13.949,13.931C15.119,91.4,10.159,97.882.343,97.882v10.493c9.811,0,14.771,6.476,20.514,13.978,6.31,8.24,13.463,17.581,27.814,17.581s21.5-9.341,27.806-17.583c5.74-7.5,10.7-13.975,20.509-13.975s14.774,6.476,20.517,13.978c6.313,8.24,13.463,17.581,27.817,17.581s21.507-9.341,27.817-17.581c5.743-7.5,10.7-13.978,20.517-13.978s14.776,6.476,20.522,13.978c6.31,8.24,13.466,17.581,27.822,17.581s21.507-9.341,27.817-17.581c5.746-7.5,10.706-13.978,20.524-13.978V97.882c-9.816,0-14.774-6.478-20.517-13.978-3.852-5.034-8.03-10.464-13.957-13.941,5.924-3.474,10.1-8.9,13.949-13.931,5.746-7.5,10.706-13.981,20.524-13.981V31.561c-9.816,0-14.774-6.478-20.517-13.978m-76.129,80.3c-9.813,0-14.774-6.478-20.517-13.981-3.858-5.037-8.038-10.472-13.975-13.946,5.916-3.477,10.086-8.9,13.936-13.925,5.743-7.5,10.7-13.978,20.517-13.978s14.776,6.478,20.522,13.978c3.855,5.034,8.033,10.467,13.965,13.944-5.919,3.477-10.092,8.9-13.939,13.931-5.743,7.5-10.7,13.978-20.509,13.978m-96.667,0C87.209,97.882,82.249,91.4,76.5,83.9c-3.855-5.034-8.033-10.467-13.965-13.944,5.919-3.474,10.092-8.9,13.939-13.931,5.74-7.5,10.7-13.978,20.509-13.978S111.759,48.53,117.5,56.033c3.858,5.037,8.038,10.472,13.975,13.946-5.916,3.477-10.086,8.9-13.933,13.923-5.746,7.5-10.706,13.981-20.519,13.981m27.817-74.714c5.743-7.5,10.7-13.978,20.517-13.978s14.774,6.478,20.517,13.978c3.742,4.887,7.791,10.144,13.447,13.626-5.675,3.485-9.734,8.752-13.484,13.65-5.743,7.5-10.706,13.978-20.519,13.978S130.546,57.944,124.8,50.445c-3.742-4.884-7.791-10.141-13.447-13.626,5.677-3.482,9.737-8.752,13.487-13.65M28.154,50.445c-3.742-4.89-7.8-10.155-13.463-13.637,5.669-3.485,9.724-8.747,13.469-13.637,5.746-7.5,10.709-13.981,20.524-13.981S63.46,15.669,69.206,23.171C72.948,28.056,77,33.313,82.659,36.8c-5.675,3.482-9.732,8.752-13.479,13.647-5.743,7.5-10.7,13.978-20.509,13.978S33.9,57.944,28.154,50.445M69.18,116.766c-5.74,7.5-10.7,13.978-20.509,13.978S33.9,124.265,28.154,116.766c-3.742-4.89-7.8-10.155-13.463-13.637,5.667-3.482,9.724-8.747,13.469-13.637,5.746-7.5,10.709-13.981,20.524-13.981S63.46,81.99,69.206,89.492C72.948,94.377,77,99.634,82.659,103.118c-5.675,3.482-9.732,8.752-13.479,13.647m96.659,0c-5.743,7.5-10.706,13.978-20.519,13.978s-14.774-6.478-20.517-13.978c-3.742-4.884-7.791-10.141-13.45-13.626,5.68-3.482,9.74-8.752,13.49-13.65,5.743-7.5,10.7-13.978,20.517-13.978s14.774,6.478,20.517,13.978c3.742,4.887,7.791,10.144,13.45,13.626-5.677,3.485-9.737,8.752-13.487,13.65M262.523,89.49c3.745,4.892,7.8,10.155,13.463,13.637-5.669,3.485-9.724,8.747-13.471,13.639-5.746,7.5-10.7,13.978-20.519,13.978s-14.779-6.478-20.524-13.981c-3.742-4.884-7.794-10.141-13.453-13.626,5.675-3.482,9.732-8.75,13.479-13.647,5.74-7.5,10.7-13.978,20.509-13.978S256.78,81.99,262.523,89.49m-.008-39.045c-5.746,7.5-10.7,13.978-20.519,13.978s-14.779-6.478-20.524-13.978c-3.742-4.887-7.794-10.144-13.453-13.629,5.675-3.482,9.732-8.75,13.479-13.647,5.74-7.5,10.7-13.978,20.509-13.978s14.774,6.478,20.517,13.978c3.745,4.892,7.8,10.155,13.463,13.637-5.669,3.485-9.727,8.747-13.471,13.639" transform="translate(815.059 3832.74)" fill="#161615"/>
      <path id="Union_6" data-name="Union 6" d="M-7328.57-5275.647c-5.745-7.5-10.7-13.977-20.521-13.977s-14.773,6.474-20.516,13.977c-6.311,8.24-13.465,17.58-27.817,17.58s-21.5-9.34-27.816-17.58c-5.745-7.5-10.705-13.977-20.518-13.977s-14.769,6.474-20.507,13.975c-6.309,8.242-13.459,17.582-27.807,17.582s-21.5-9.34-27.814-17.58c-5.743-7.5-10.7-13.977-20.514-13.977v-10.493c9.815,0,14.775-6.48,20.522-13.98,3.852-5.03,8.024-10.457,13.948-13.932-5.926-3.478-10.1-8.906-13.956-13.942-5.743-7.5-10.7-13.977-20.514-13.977v-10.491c9.815,0,14.775-6.478,20.522-13.98,6.309-8.24,13.465-17.58,27.818-17.58s21.508,9.34,27.821,17.582c5.745,7.5,10.705,13.979,20.521,13.979s14.773-6.478,20.518-13.98c6.311-8.24,13.461-17.58,27.815-17.58s21.5,9.34,27.816,17.58c5.743,7.5,10.7,13.98,20.518,13.98s14.765-6.478,20.507-13.979c6.307-8.24,13.459-17.582,27.807-17.582s21.5,9.34,27.814,17.582c5.743,7.5,10.7,13.979,20.516,13.979v10.491c-9.817,0-14.777,6.478-20.524,13.98-3.85,5.027-8.024,10.457-13.948,13.93,5.926,3.477,10.1,8.908,13.956,13.942,5.743,7.5,10.7,13.979,20.516,13.979v10.493c-9.817,0-14.777,6.474-20.524,13.977-6.311,8.24-13.465,17.58-27.816,17.58S-7322.259-5267.407-7328.57-5275.647Zm7.326-32.863c-3.749,4.9-7.806,10.166-13.479,13.647,5.659,3.485,9.711,8.741,13.453,13.626,5.745,7.5,10.705,13.98,20.524,13.98s14.773-6.478,20.52-13.979c3.747-4.891,7.8-10.155,13.472-13.638-5.666-3.481-9.719-8.746-13.465-13.637-5.743-7.5-10.7-13.979-20.516-13.979S-7315.506-5316.01-7321.244-5308.51Zm-96.656,0c-3.75,4.9-7.811,10.167-13.49,13.649,5.659,3.485,9.707,8.743,13.449,13.626,5.743,7.5,10.7,13.979,20.518,13.979s14.775-6.478,20.52-13.979c3.748-4.9,7.808-10.165,13.485-13.648-5.659-3.483-9.707-8.739-13.449-13.626-5.743-7.5-10.7-13.979-20.518-13.979S-7412.158-5316.01-7417.9-5308.51Zm-96.683,0c-3.744,4.889-7.8,10.155-13.469,13.636,5.667,3.481,9.721,8.747,13.463,13.636,5.745,7.5,10.705,13.979,20.518,13.979s14.769-6.478,20.507-13.979c3.749-4.9,7.8-10.165,13.479-13.646-5.659-3.485-9.71-8.741-13.453-13.626-5.745-7.5-10.705-13.981-20.522-13.981S-7508.839-5316.01-7514.583-5308.507Zm144.977-33.463c-3.85,5.027-8.02,10.45-13.936,13.925,5.936,3.476,10.118,8.91,13.975,13.948,5.743,7.5,10.7,13.98,20.518,13.98s14.765-6.48,20.507-13.979c3.848-5.03,8.021-10.455,13.94-13.932-5.932-3.476-10.11-8.908-13.966-13.944-5.745-7.5-10.7-13.977-20.521-13.977S-7363.864-5349.469-7369.607-5341.971Zm-96.658,0c-3.848,5.029-8.02,10.456-13.94,13.932,5.932,3.477,10.11,8.91,13.966,13.944,5.745,7.5,10.705,13.979,20.521,13.979s14.773-6.48,20.518-13.98c3.848-5.023,8.018-10.446,13.934-13.924-5.936-3.473-10.118-8.91-13.975-13.946-5.745-7.5-10.705-13.98-20.518-13.98S-7460.527-5349.469-7466.265-5341.971Zm145.021-32.861c-3.749,4.9-7.806,10.166-13.479,13.646,5.659,3.486,9.711,8.744,13.453,13.628,5.745,7.5,10.705,13.979,20.524,13.979s14.773-6.478,20.52-13.979c3.745-4.891,7.8-10.153,13.472-13.638-5.666-3.481-9.719-8.743-13.465-13.637-5.743-7.5-10.7-13.979-20.516-13.979S-7315.506-5382.332-7321.244-5374.832Zm-96.656,0c-3.75,4.9-7.811,10.167-13.488,13.651,5.657,3.483,9.7,8.741,13.447,13.624,5.743,7.5,10.7,13.979,20.518,13.979s14.775-6.478,20.52-13.979c3.748-4.9,7.808-10.163,13.483-13.648-5.657-3.481-9.7-8.739-13.447-13.626-5.743-7.5-10.7-13.979-20.518-13.979S-7412.158-5382.332-7417.9-5374.832Zm-96.683,0c-3.744,4.891-7.8,10.153-13.469,13.638,5.667,3.481,9.721,8.745,13.463,13.634,5.745,7.5,10.705,13.979,20.518,13.979s14.765-6.478,20.507-13.979c3.749-4.893,7.8-10.163,13.479-13.646-5.659-3.483-9.71-8.741-13.453-13.626-5.745-7.5-10.705-13.981-20.522-13.981S-7508.839-5382.332-7514.583-5374.829Zm-103.979,99.182c-5.747-7.5-10.7-13.977-20.521-13.977s-14.773,6.474-20.518,13.977c-6.309,8.24-13.465,17.58-27.817,17.58s-21.5-9.34-27.816-17.58c-5.743-7.5-10.7-13.977-20.516-13.977s-14.769,6.474-20.51,13.975c-6.307,8.242-13.457,17.582-27.806,17.582s-21.5-9.34-27.812-17.58c-5.194-6.783-9.746-12.726-17.822-13.8-8.082,1.077-12.634,7.02-17.83,13.8-6.309,8.24-13.465,17.58-27.816,17.58s-21.512-9.34-27.821-17.58c-5.747-7.5-10.705-13.977-20.521-13.977s-14.775,6.474-20.518,13.977c-6.309,8.24-13.465,17.58-27.816,17.58s-21.5-9.34-27.816-17.58c-5.743-7.5-10.7-13.977-20.516-13.977s-14.769,6.474-20.51,13.975c-6.307,8.242-13.459,17.582-27.806,17.582s-21.5-9.34-27.814-17.58c-5.743-7.5-10.7-13.977-20.514-13.977v-10.493c9.816,0,14.777-6.48,20.521-13.98,3.852-5.03,8.026-10.457,13.95-13.932-5.928-3.478-10.106-8.906-13.958-13.942-5.743-7.5-10.7-13.977-20.514-13.977v-10.491c9.816,0,14.777-6.478,20.521-13.98,6.311-8.24,13.465-17.58,27.821-17.58s21.505,9.34,27.818,17.582c5.745,7.5,10.705,13.979,20.522,13.979s14.773-6.478,20.52-13.98c6.309-8.24,13.459-17.58,27.813-17.58s21.506,9.34,27.819,17.58c5.743,7.5,10.7,13.98,20.516,13.98s14.765-6.478,20.507-13.979c6.309-8.24,13.459-17.582,27.809-17.582s21.5,9.34,27.813,17.582c5.192,6.781,9.743,12.727,17.822,13.8,8.081-1.078,12.633-7.023,17.827-13.807,6.311-8.24,13.467-17.58,27.821-17.58s21.506,9.34,27.819,17.582c5.747,7.5,10.707,13.979,20.521,13.979s14.773-6.478,20.52-13.98c6.309-8.24,13.461-17.58,27.815-17.58s21.5,9.34,27.816,17.58c5.743,7.5,10.7,13.98,20.516,13.98s14.767-6.478,20.509-13.979c6.307-8.24,13.458-17.582,27.807-17.582s21.5,9.34,27.813,17.582c5.745,7.5,10.7,13.979,20.518,13.979v10.491c-9.819,0-14.779,6.478-20.524,13.98-3.85,5.027-8.026,10.457-13.95,13.93,5.926,3.477,10.1,8.908,13.956,13.942,5.745,7.5,10.7,13.979,20.518,13.979v10.493c-9.819,0-14.779,6.474-20.524,13.977-6.311,8.24-13.467,17.58-27.816,17.58S-7612.252-5267.407-7618.563-5275.647Zm7.323-32.863c-3.746,4.9-7.8,10.166-13.479,13.647,5.659,3.485,9.711,8.741,13.453,13.626,5.747,7.5,10.707,13.98,20.526,13.98s14.773-6.478,20.518-13.979c3.749-4.891,7.8-10.155,13.472-13.638-5.664-3.481-9.719-8.746-13.463-13.637-5.743-7.5-10.7-13.979-20.516-13.979S-7605.5-5316.01-7611.24-5308.51Zm-96.656,0c-3.748,4.9-7.81,10.167-13.489,13.649,5.659,3.485,9.708,8.743,13.451,13.626,5.743,7.5,10.7,13.979,20.516,13.979s14.777-6.478,20.52-13.979c3.75-4.9,7.81-10.165,13.487-13.648-5.659-3.483-9.708-8.739-13.451-13.626-5.743-7.5-10.7-13.979-20.516-13.979S-7702.153-5316.01-7707.9-5308.51Zm-96.683,0c-3.744,4.889-7.8,10.155-13.467,13.636,5.667,3.481,9.721,8.747,13.463,13.636,5.743,7.5,10.7,13.979,20.516,13.979s14.769-6.478,20.509-13.979c3.747-4.9,7.8-10.165,13.479-13.646-5.659-3.485-9.71-8.741-13.453-13.626-5.747-7.5-10.707-13.981-20.522-13.981S-7798.832-5316.01-7804.579-5308.507Zm-91.266,0c-3.746,4.9-7.8,10.166-13.479,13.647,5.659,3.485,9.711,8.741,13.453,13.626,5.745,7.5,10.707,13.98,20.524,13.98s14.775-6.478,20.52-13.979c3.748-4.891,7.8-10.155,13.471-13.638-5.665-3.481-9.719-8.746-13.463-13.637-5.743-7.5-10.7-13.979-20.516-13.979S-7890.1-5316.01-7895.845-5308.51Zm-96.656,0c-3.75,4.9-7.81,10.167-13.49,13.649,5.659,3.485,9.709,8.743,13.451,13.626,5.743,7.5,10.7,13.979,20.516,13.979s14.777-6.478,20.52-13.979c3.75-4.9,7.811-10.165,13.488-13.648-5.661-3.483-9.709-8.739-13.451-13.626-5.742-7.5-10.7-13.979-20.518-13.979S-7986.758-5316.01-7992.5-5308.51Zm-96.683,0c-3.744,4.889-7.8,10.155-13.467,13.636,5.665,3.481,9.721,8.747,13.463,13.636,5.743,7.5,10.7,13.979,20.516,13.979s14.769-6.478,20.509-13.979c3.746-4.9,7.8-10.165,13.478-13.646-5.657-3.485-9.711-8.741-13.451-13.626-5.747-7.5-10.707-13.981-20.521-13.981S-8083.437-5316.01-8089.184-5308.507Zm429.582-33.463c-3.848,5.027-8.018,10.45-13.936,13.925,5.938,3.476,10.118,8.91,13.977,13.948,5.743,7.5,10.7,13.98,20.516,13.98s14.767-6.48,20.509-13.979c3.846-5.03,8.021-10.455,13.938-13.932-5.932-3.476-10.11-8.908-13.964-13.944-5.747-7.5-10.7-13.977-20.521-13.977S-7653.857-5349.469-7659.6-5341.971Zm-96.659,0c-3.846,5.029-8.02,10.456-13.937,13.932,5.932,3.477,10.11,8.91,13.964,13.944,5.747,7.5,10.707,13.979,20.521,13.979s14.773-6.48,20.52-13.98c3.846-5.023,8.016-10.446,13.934-13.924-5.938-3.473-10.118-8.91-13.977-13.946-5.743-7.5-10.7-13.98-20.516-13.98S-7750.52-5349.469-7756.261-5341.971Zm-187.947,0c-3.85,5.027-8.02,10.45-13.936,13.925,5.938,3.476,10.118,8.91,13.977,13.948,5.743,7.5,10.7,13.98,20.516,13.98s14.765-6.48,20.507-13.979c3.848-5.03,8.02-10.455,13.94-13.932-5.932-3.476-10.11-8.908-13.964-13.944-5.747-7.5-10.705-13.977-20.521-13.977S-7938.465-5349.469-7944.208-5341.971Zm-96.658,0c-3.846,5.029-8.02,10.456-13.937,13.932,5.932,3.477,10.11,8.91,13.964,13.944,5.745,7.5,10.705,13.979,20.522,13.979s14.773-6.48,20.52-13.98c3.846-5.023,8.016-10.446,13.932-13.924-5.936-3.473-10.116-8.91-13.974-13.946-5.743-7.5-10.7-13.98-20.516-13.98S-8035.125-5349.469-8040.866-5341.971Zm193.335,0c-3.848,5.027-8.024,10.457-13.948,13.93,5.926,3.477,10.1,8.908,13.956,13.942,5.192,6.779,9.743,12.727,17.822,13.8,8.081-1.078,12.633-7.025,17.827-13.807,3.854-5.03,8.026-10.457,13.95-13.932-5.926-3.478-10.1-8.906-13.956-13.942-5.194-6.78-9.746-12.725-17.822-13.8C-7837.783-5354.7-7842.335-5348.75-7847.531-5341.967Zm236.291-32.865c-3.746,4.9-7.8,10.166-13.479,13.646,5.659,3.486,9.711,8.744,13.453,13.628,5.747,7.5,10.707,13.979,20.526,13.979s14.773-6.478,20.518-13.979c3.744-4.891,7.8-10.153,13.472-13.638-5.664-3.481-9.719-8.743-13.463-13.637-5.743-7.5-10.7-13.979-20.516-13.979S-7605.5-5382.332-7611.24-5374.832Zm-96.656,0c-3.748,4.9-7.81,10.167-13.485,13.651,5.655,3.483,9.7,8.741,13.447,13.624,5.743,7.5,10.7,13.979,20.516,13.979s14.777-6.478,20.52-13.979c3.75-4.9,7.81-10.163,13.485-13.648-5.657-3.481-9.707-8.739-13.449-13.626-5.743-7.5-10.7-13.979-20.516-13.979S-7702.153-5382.332-7707.9-5374.832Zm-96.683,0c-3.744,4.891-7.8,10.153-13.467,13.638,5.667,3.481,9.721,8.745,13.463,13.634,5.743,7.5,10.7,13.979,20.516,13.979s14.767-6.478,20.509-13.979c3.747-4.893,7.8-10.163,13.479-13.646-5.659-3.483-9.71-8.741-13.453-13.626-5.747-7.5-10.707-13.981-20.522-13.981S-7798.832-5382.332-7804.579-5374.829Zm-91.266,0c-3.746,4.9-7.8,10.166-13.479,13.646,5.659,3.486,9.711,8.744,13.453,13.628,5.745,7.5,10.707,13.979,20.524,13.979s14.775-6.478,20.52-13.979c3.744-4.891,7.8-10.153,13.471-13.638-5.665-3.481-9.719-8.743-13.463-13.637-5.743-7.5-10.7-13.979-20.516-13.979S-7890.1-5382.332-7895.845-5374.832Zm-96.656,0c-3.75,4.9-7.81,10.167-13.487,13.651,5.657,3.483,9.707,8.741,13.449,13.624,5.743,7.5,10.7,13.979,20.516,13.979s14.777-6.478,20.52-13.979c3.75-4.9,7.811-10.163,13.484-13.648-5.657-3.481-9.705-8.739-13.447-13.626-5.742-7.5-10.7-13.979-20.518-13.979S-7986.758-5382.332-7992.5-5374.832Zm-96.683,0c-3.744,4.891-7.8,10.153-13.467,13.638,5.665,3.481,9.721,8.745,13.463,13.634,5.743,7.5,10.7,13.979,20.516,13.979s14.765-6.478,20.509-13.979c3.746-4.893,7.8-10.163,13.478-13.646-5.657-3.483-9.711-8.741-13.451-13.626-5.747-7.5-10.707-13.981-20.521-13.981S-8083.437-5382.332-8089.184-5374.829Z" transform="translate(9222.395 9230.74)" fill="#161615" stroke="rgba(0,0,0,0)" stroke-miterlimit="10" stroke-width="1"/>
      <path id="Union_7" data-name="Union 7" d="M-7328.57-5275.647c-5.745-7.5-10.7-13.977-20.521-13.977s-14.773,6.474-20.516,13.977c-6.311,8.24-13.465,17.58-27.817,17.58s-21.5-9.34-27.816-17.58c-5.745-7.5-10.705-13.977-20.518-13.977s-14.769,6.474-20.507,13.975c-6.309,8.242-13.459,17.582-27.807,17.582s-21.5-9.34-27.814-17.58c-5.743-7.5-10.7-13.977-20.514-13.977v-10.493c9.815,0,14.775-6.48,20.522-13.98,3.852-5.03,8.024-10.457,13.948-13.932-5.926-3.478-10.1-8.906-13.956-13.942-5.743-7.5-10.7-13.977-20.514-13.977v-10.491c9.815,0,14.775-6.478,20.522-13.98,6.309-8.24,13.465-17.58,27.818-17.58s21.508,9.34,27.821,17.582c5.745,7.5,10.705,13.979,20.521,13.979s14.773-6.478,20.518-13.98c6.311-8.24,13.461-17.58,27.815-17.58s21.5,9.34,27.816,17.58c5.743,7.5,10.7,13.98,20.518,13.98s14.765-6.478,20.507-13.979c6.307-8.24,13.459-17.582,27.807-17.582s21.5,9.34,27.814,17.582c5.743,7.5,10.7,13.979,20.516,13.979v10.491c-9.817,0-14.777,6.478-20.524,13.98-3.85,5.027-8.024,10.457-13.948,13.93,5.926,3.477,10.1,8.908,13.956,13.942,5.743,7.5,10.7,13.979,20.516,13.979v10.493c-9.817,0-14.777,6.474-20.524,13.977-6.311,8.24-13.465,17.58-27.816,17.58S-7322.259-5267.407-7328.57-5275.647Zm7.326-32.863c-3.749,4.9-7.806,10.166-13.479,13.647,5.659,3.485,9.711,8.741,13.453,13.626,5.745,7.5,10.705,13.98,20.524,13.98s14.773-6.478,20.52-13.979c3.747-4.891,7.8-10.155,13.472-13.638-5.666-3.481-9.719-8.746-13.465-13.637-5.743-7.5-10.7-13.979-20.516-13.979S-7315.506-5316.01-7321.244-5308.51Zm-96.656,0c-3.75,4.9-7.811,10.167-13.49,13.649,5.659,3.485,9.707,8.743,13.449,13.626,5.743,7.5,10.7,13.979,20.518,13.979s14.775-6.478,20.52-13.979c3.748-4.9,7.808-10.165,13.485-13.648-5.659-3.483-9.707-8.739-13.449-13.626-5.743-7.5-10.7-13.979-20.518-13.979S-7412.158-5316.01-7417.9-5308.51Zm-96.683,0c-3.744,4.889-7.8,10.155-13.469,13.636,5.667,3.481,9.721,8.747,13.463,13.636,5.745,7.5,10.705,13.979,20.518,13.979s14.769-6.478,20.507-13.979c3.749-4.9,7.8-10.165,13.479-13.646-5.659-3.485-9.71-8.741-13.453-13.626-5.745-7.5-10.705-13.981-20.522-13.981S-7508.839-5316.01-7514.583-5308.507Zm144.977-33.463c-3.85,5.027-8.02,10.45-13.936,13.925,5.936,3.476,10.118,8.91,13.975,13.948,5.743,7.5,10.7,13.98,20.518,13.98s14.765-6.48,20.507-13.979c3.848-5.03,8.021-10.455,13.94-13.932-5.932-3.476-10.11-8.908-13.966-13.944-5.745-7.5-10.7-13.977-20.521-13.977S-7363.864-5349.469-7369.607-5341.971Zm-96.658,0c-3.848,5.029-8.02,10.456-13.94,13.932,5.932,3.477,10.11,8.91,13.966,13.944,5.745,7.5,10.705,13.979,20.521,13.979s14.773-6.48,20.518-13.98c3.848-5.023,8.018-10.446,13.934-13.924-5.936-3.473-10.118-8.91-13.975-13.946-5.745-7.5-10.705-13.98-20.518-13.98S-7460.527-5349.469-7466.265-5341.971Zm145.021-32.861c-3.749,4.9-7.806,10.166-13.479,13.646,5.659,3.486,9.711,8.744,13.453,13.628,5.745,7.5,10.705,13.979,20.524,13.979s14.773-6.478,20.52-13.979c3.745-4.891,7.8-10.153,13.472-13.638-5.666-3.481-9.719-8.743-13.465-13.637-5.743-7.5-10.7-13.979-20.516-13.979S-7315.506-5382.332-7321.244-5374.832Zm-96.656,0c-3.75,4.9-7.811,10.167-13.488,13.651,5.657,3.483,9.7,8.741,13.447,13.624,5.743,7.5,10.7,13.979,20.518,13.979s14.775-6.478,20.52-13.979c3.748-4.9,7.808-10.163,13.483-13.648-5.657-3.481-9.7-8.739-13.447-13.626-5.743-7.5-10.7-13.979-20.518-13.979S-7412.158-5382.332-7417.9-5374.832Zm-96.683,0c-3.744,4.891-7.8,10.153-13.469,13.638,5.667,3.481,9.721,8.745,13.463,13.634,5.745,7.5,10.705,13.979,20.518,13.979s14.765-6.478,20.507-13.979c3.749-4.893,7.8-10.163,13.479-13.646-5.659-3.483-9.71-8.741-13.453-13.626-5.745-7.5-10.705-13.981-20.522-13.981S-7508.839-5382.332-7514.583-5374.829Zm-103.979,99.182c-5.747-7.5-10.7-13.977-20.521-13.977s-14.773,6.474-20.518,13.977c-6.309,8.24-13.465,17.58-27.817,17.58s-21.5-9.34-27.816-17.58c-5.743-7.5-10.7-13.977-20.516-13.977s-14.769,6.474-20.51,13.975c-6.307,8.242-13.457,17.582-27.806,17.582s-21.5-9.34-27.812-17.58c-5.194-6.783-9.746-12.726-17.822-13.8-8.082,1.077-12.634,7.02-17.83,13.8-6.309,8.24-13.465,17.58-27.816,17.58s-21.512-9.34-27.821-17.58c-5.747-7.5-10.705-13.977-20.521-13.977s-14.775,6.474-20.518,13.977c-6.309,8.24-13.465,17.58-27.816,17.58s-21.5-9.34-27.816-17.58c-5.743-7.5-10.7-13.977-20.516-13.977s-14.769,6.474-20.51,13.975c-6.307,8.242-13.459,17.582-27.806,17.582s-21.5-9.34-27.814-17.58c-5.743-7.5-10.7-13.977-20.514-13.977v-10.493c9.816,0,14.777-6.48,20.521-13.98,3.852-5.03,8.026-10.457,13.95-13.932-5.928-3.478-10.106-8.906-13.958-13.942-5.743-7.5-10.7-13.977-20.514-13.977v-10.491c9.816,0,14.777-6.478,20.521-13.98,6.311-8.24,13.465-17.58,27.821-17.58s21.505,9.34,27.818,17.582c5.745,7.5,10.705,13.979,20.522,13.979s14.773-6.478,20.52-13.98c6.309-8.24,13.459-17.58,27.813-17.58s21.506,9.34,27.819,17.58c5.743,7.5,10.7,13.98,20.516,13.98s14.765-6.478,20.507-13.979c6.309-8.24,13.459-17.582,27.809-17.582s21.5,9.34,27.813,17.582c5.192,6.781,9.743,12.727,17.822,13.8,8.081-1.078,12.633-7.023,17.827-13.807,6.311-8.24,13.467-17.58,27.821-17.58s21.506,9.34,27.819,17.582c5.747,7.5,10.707,13.979,20.521,13.979s14.773-6.478,20.52-13.98c6.309-8.24,13.461-17.58,27.815-17.58s21.5,9.34,27.816,17.58c5.743,7.5,10.7,13.98,20.516,13.98s14.767-6.478,20.509-13.979c6.307-8.24,13.458-17.582,27.807-17.582s21.5,9.34,27.813,17.582c5.745,7.5,10.7,13.979,20.518,13.979v10.491c-9.819,0-14.779,6.478-20.524,13.98-3.85,5.027-8.026,10.457-13.95,13.93,5.926,3.477,10.1,8.908,13.956,13.942,5.745,7.5,10.7,13.979,20.518,13.979v10.493c-9.819,0-14.779,6.474-20.524,13.977-6.311,8.24-13.467,17.58-27.816,17.58S-7612.252-5267.407-7618.563-5275.647Zm7.323-32.863c-3.746,4.9-7.8,10.166-13.479,13.647,5.659,3.485,9.711,8.741,13.453,13.626,5.747,7.5,10.707,13.98,20.526,13.98s14.773-6.478,20.518-13.979c3.749-4.891,7.8-10.155,13.472-13.638-5.664-3.481-9.719-8.746-13.463-13.637-5.743-7.5-10.7-13.979-20.516-13.979S-7605.5-5316.01-7611.24-5308.51Zm-96.656,0c-3.748,4.9-7.81,10.167-13.489,13.649,5.659,3.485,9.708,8.743,13.451,13.626,5.743,7.5,10.7,13.979,20.516,13.979s14.777-6.478,20.52-13.979c3.75-4.9,7.81-10.165,13.487-13.648-5.659-3.483-9.708-8.739-13.451-13.626-5.743-7.5-10.7-13.979-20.516-13.979S-7702.153-5316.01-7707.9-5308.51Zm-96.683,0c-3.744,4.889-7.8,10.155-13.467,13.636,5.667,3.481,9.721,8.747,13.463,13.636,5.743,7.5,10.7,13.979,20.516,13.979s14.769-6.478,20.509-13.979c3.747-4.9,7.8-10.165,13.479-13.646-5.659-3.485-9.71-8.741-13.453-13.626-5.747-7.5-10.707-13.981-20.522-13.981S-7798.832-5316.01-7804.579-5308.507Zm-91.266,0c-3.746,4.9-7.8,10.166-13.479,13.647,5.659,3.485,9.711,8.741,13.453,13.626,5.745,7.5,10.707,13.98,20.524,13.98s14.775-6.478,20.52-13.979c3.748-4.891,7.8-10.155,13.471-13.638-5.665-3.481-9.719-8.746-13.463-13.637-5.743-7.5-10.7-13.979-20.516-13.979S-7890.1-5316.01-7895.845-5308.51Zm-96.656,0c-3.75,4.9-7.81,10.167-13.49,13.649,5.659,3.485,9.709,8.743,13.451,13.626,5.743,7.5,10.7,13.979,20.516,13.979s14.777-6.478,20.52-13.979c3.75-4.9,7.811-10.165,13.488-13.648-5.661-3.483-9.709-8.739-13.451-13.626-5.742-7.5-10.7-13.979-20.518-13.979S-7986.758-5316.01-7992.5-5308.51Zm-96.683,0c-3.744,4.889-7.8,10.155-13.467,13.636,5.665,3.481,9.721,8.747,13.463,13.636,5.743,7.5,10.7,13.979,20.516,13.979s14.769-6.478,20.509-13.979c3.746-4.9,7.8-10.165,13.478-13.646-5.657-3.485-9.711-8.741-13.451-13.626-5.747-7.5-10.707-13.981-20.521-13.981S-8083.437-5316.01-8089.184-5308.507Zm429.582-33.463c-3.848,5.027-8.018,10.45-13.936,13.925,5.938,3.476,10.118,8.91,13.977,13.948,5.743,7.5,10.7,13.98,20.516,13.98s14.767-6.48,20.509-13.979c3.846-5.03,8.021-10.455,13.938-13.932-5.932-3.476-10.11-8.908-13.964-13.944-5.747-7.5-10.7-13.977-20.521-13.977S-7653.857-5349.469-7659.6-5341.971Zm-96.659,0c-3.846,5.029-8.02,10.456-13.937,13.932,5.932,3.477,10.11,8.91,13.964,13.944,5.747,7.5,10.707,13.979,20.521,13.979s14.773-6.48,20.52-13.98c3.846-5.023,8.016-10.446,13.934-13.924-5.938-3.473-10.118-8.91-13.977-13.946-5.743-7.5-10.7-13.98-20.516-13.98S-7750.52-5349.469-7756.261-5341.971Zm-187.947,0c-3.85,5.027-8.02,10.45-13.936,13.925,5.938,3.476,10.118,8.91,13.977,13.948,5.743,7.5,10.7,13.98,20.516,13.98s14.765-6.48,20.507-13.979c3.848-5.03,8.02-10.455,13.94-13.932-5.932-3.476-10.11-8.908-13.964-13.944-5.747-7.5-10.705-13.977-20.521-13.977S-7938.465-5349.469-7944.208-5341.971Zm-96.658,0c-3.846,5.029-8.02,10.456-13.937,13.932,5.932,3.477,10.11,8.91,13.964,13.944,5.745,7.5,10.705,13.979,20.522,13.979s14.773-6.48,20.52-13.98c3.846-5.023,8.016-10.446,13.932-13.924-5.936-3.473-10.116-8.91-13.974-13.946-5.743-7.5-10.7-13.98-20.516-13.98S-8035.125-5349.469-8040.866-5341.971Zm193.335,0c-3.848,5.027-8.024,10.457-13.948,13.93,5.926,3.477,10.1,8.908,13.956,13.942,5.192,6.779,9.743,12.727,17.822,13.8,8.081-1.078,12.633-7.025,17.827-13.807,3.854-5.03,8.026-10.457,13.95-13.932-5.926-3.478-10.1-8.906-13.956-13.942-5.194-6.78-9.746-12.725-17.822-13.8C-7837.783-5354.7-7842.335-5348.75-7847.531-5341.967Zm236.291-32.865c-3.746,4.9-7.8,10.166-13.479,13.646,5.659,3.486,9.711,8.744,13.453,13.628,5.747,7.5,10.707,13.979,20.526,13.979s14.773-6.478,20.518-13.979c3.744-4.891,7.8-10.153,13.472-13.638-5.664-3.481-9.719-8.743-13.463-13.637-5.743-7.5-10.7-13.979-20.516-13.979S-7605.5-5382.332-7611.24-5374.832Zm-96.656,0c-3.748,4.9-7.81,10.167-13.485,13.651,5.655,3.483,9.7,8.741,13.447,13.624,5.743,7.5,10.7,13.979,20.516,13.979s14.777-6.478,20.52-13.979c3.75-4.9,7.81-10.163,13.485-13.648-5.657-3.481-9.707-8.739-13.449-13.626-5.743-7.5-10.7-13.979-20.516-13.979S-7702.153-5382.332-7707.9-5374.832Zm-96.683,0c-3.744,4.891-7.8,10.153-13.467,13.638,5.667,3.481,9.721,8.745,13.463,13.634,5.743,7.5,10.7,13.979,20.516,13.979s14.767-6.478,20.509-13.979c3.747-4.893,7.8-10.163,13.479-13.646-5.659-3.483-9.71-8.741-13.453-13.626-5.747-7.5-10.707-13.981-20.522-13.981S-7798.832-5382.332-7804.579-5374.829Zm-91.266,0c-3.746,4.9-7.8,10.166-13.479,13.646,5.659,3.486,9.711,8.744,13.453,13.628,5.745,7.5,10.707,13.979,20.524,13.979s14.775-6.478,20.52-13.979c3.744-4.891,7.8-10.153,13.471-13.638-5.665-3.481-9.719-8.743-13.463-13.637-5.743-7.5-10.7-13.979-20.516-13.979S-7890.1-5382.332-7895.845-5374.832Zm-96.656,0c-3.75,4.9-7.81,10.167-13.487,13.651,5.657,3.483,9.707,8.741,13.449,13.624,5.743,7.5,10.7,13.979,20.516,13.979s14.777-6.478,20.52-13.979c3.75-4.9,7.811-10.163,13.484-13.648-5.657-3.481-9.705-8.739-13.447-13.626-5.742-7.5-10.7-13.979-20.518-13.979S-7986.758-5382.332-7992.5-5374.832Zm-96.683,0c-3.744,4.891-7.8,10.153-13.467,13.638,5.665,3.481,9.721,8.745,13.463,13.634,5.743,7.5,10.7,13.979,20.516,13.979s14.765-6.478,20.509-13.979c3.746-4.893,7.8-10.163,13.478-13.646-5.657-3.483-9.711-8.741-13.451-13.626-5.747-7.5-10.707-13.981-20.521-13.981S-8083.437-5382.332-8089.184-5374.829Z" transform="translate(-7301.6 -1425.324) rotate(180)" fill="#161615" stroke="rgba(0,0,0,0)" stroke-miterlimit="10" stroke-width="1"/>
    </g>
  </g>
</svg>
