<svg xmlns="http://www.w3.org/2000/svg" xmlns:xlink="http://www.w3.org/1999/xlink" width="291" height="113.142" viewBox="0 0 291 113.142"><defs><clipPath id="a"><rect width="291" height="113.142" transform="translate(0 150.527)" fill="none"/></clipPath></defs><g transform="translate(0 -150.527)"><g clip-path="url(#a)"><path d="M19.546,58.415V73.163a42.422,42.422,0,0,1-.341,5.121q-.343,2.8-.751,5.123h.273q.41-2.324,1.024-5.055a26.929,26.929,0,0,1,1.57-4.913q3.687-8.473,9.558-12.292a21.979,21.979,0,0,1,12.153-3.823,24.426,24.426,0,0,1,9.081,1.5,21.373,21.373,0,0,1,6.418,3.892,20.722,20.722,0,0,1,4.3,5.325,32.522,32.522,0,0,1,2.6,5.94,21.9,21.9,0,0,1,.817,5.121,30.769,30.769,0,0,1-.137,5.121h.273a35.963,35.963,0,0,1,2.253-9.9,29.778,29.778,0,0,1,4.987-8.605A24.7,24.7,0,0,1,81.2,59.644a21.034,21.034,0,0,1,9.9-2.321q11.332,0,17.615,7.647T115,89v37.69H95.47V94.738q0-9.008-3.55-13.382a11.539,11.539,0,0,0-9.422-4.37,12.809,12.809,0,0,0-5.123,1.163,13.407,13.407,0,0,0-4.916,3.889,21.542,21.542,0,0,0-3.684,7.237,36.8,36.8,0,0,0-1.436,11.063v26.354H47.675V94.738q0-9.284-3.277-13.516a10.764,10.764,0,0,0-9.012-4.236A13.247,13.247,0,0,0,30.4,78.149a14.143,14.143,0,0,0-5.189,3.889,22.623,22.623,0,0,0-4.028,7.237,32.591,32.591,0,0,0-1.639,11.063v26.354H.017V58.415Z" transform="translate(0.028 93.204)" fill="#161615"/><path d="M62.894,124.118a22.7,22.7,0,0,1-8.739-7.715,34.206,34.206,0,0,1-4.848-12.019,75.079,75.079,0,0,1-1.5-15.635V57.479H67.332v31.27q0,9.832,4.37,14.2t11.746,4.372a19.615,19.615,0,0,0,5.937-1.024,15.678,15.678,0,0,0,6.011-3.687,20.073,20.073,0,0,0,4.643-7.442,34.159,34.159,0,0,0,1.843-12.153V57.479h19.527v68.277H101.881v-15.7a34.77,34.77,0,0,1,.341-4.577q.339-2.525.751-4.574H102.7q-.41,2.052-.956,4.506a18.832,18.832,0,0,1-1.5,4.37q-3.825,8.878-10.585,12.972a26.184,26.184,0,0,1-13.723,4.1,28.619,28.619,0,0,1-13.04-2.731" transform="translate(77.729 93.458)" fill="#161615"/><path d="M105.44,125.226a38.309,38.309,0,0,1-13.245-6.483,31.992,31.992,0,0,1-9.015-10.927,33.579,33.579,0,0,1-3.343-15.433,33.583,33.583,0,0,1,3.343-15.43A31.983,31.983,0,0,1,92.195,66.03a38.309,38.309,0,0,1,13.245-6.483,58.805,58.805,0,0,1,15.911-2.119,54.1,54.1,0,0,1,15.7,2.185A36.591,36.591,0,0,1,149.616,66.1a30.156,30.156,0,0,1,8.4,10.853,36.048,36.048,0,0,1,3.072,15.43,17.338,17.338,0,0,1-.068,1.983,15.456,15.456,0,0,0-.068,1.843H99.912a17.715,17.715,0,0,0,2.455,7.032,18.16,18.16,0,0,0,4.848,5.189,20.568,20.568,0,0,0,6.694,3.141A30.219,30.219,0,0,0,121.9,112.6a33.472,33.472,0,0,0,13.038-2.185q5.121-2.186,7.442-8.878l18.027.956a32.519,32.519,0,0,1-5.462,12.221,26.873,26.873,0,0,1-8.807,7.578,39.3,39.3,0,0,1-11.4,3.894,73.749,73.749,0,0,1-13.379,1.158,58.909,58.909,0,0,1-15.911-2.117m8.534-52.708a19.519,19.519,0,0,0-7.374,4.3,20.848,20.848,0,0,0-5.189,7.783,26.808,26.808,0,0,0-1.5,11.607q1.639-5.6,4.5-7.374a13.812,13.812,0,0,1,7.374-1.775h31.679a15.686,15.686,0,0,0-2.319-7.169,16.726,16.726,0,0,0-4.782-4.848,21.256,21.256,0,0,0-6.62-2.868,31.68,31.68,0,0,0-7.852-.956,26.144,26.144,0,0,0-7.923,1.3" transform="translate(129.811 93.373)" fill="#161615"/><path d="M24.44,96.847l-4.887.486c-.924-2.776-3.214-4.49-6.869-4.49-4.228-.045-7.4,2.552-7.4,7,0,4.4,3.08,7.045,7.4,6.956,3.521-.045,5.769-1.452,6.825-4.359l4.932.483c-.969,5.507-6.473,8.148-11.756,8.193C5.856,111.159,0,107.461,0,99.843S5.856,88.526,12.683,88.57c5.283.042,10.787,2.686,11.756,8.277" transform="translate(0 144.01)" fill="#161615"/><path d="M17.168,99.843c0-7.618,5.943-11.318,12.857-11.273,6.869.045,12.815,3.655,12.815,11.273s-5.945,11.273-12.815,11.273c-6.914,0-12.857-3.655-12.857-11.273m5.283,0c0,4.58,3.345,6.914,7.573,6.914,4.052,0,7.531-2.376,7.531-6.914,0-4.493-3.566-6.914-7.531-6.956-3.918-.045-7.573,2.51-7.573,6.956" transform="translate(27.914 144.01)" fill="#161615"/><path d="M35.105,88.889h5.286v4.887a16.143,16.143,0,0,1-.31,2.952l.092.045a12.607,12.607,0,0,1,.788-2.862,9.166,9.166,0,0,1,8.193-5.373c5.811,0,8.014,5.11,8.014,11.712v10.659H51.843V100.249c0-4-1.717-6.384-4.627-6.384-2.376,0-6.825,1.539-6.825,8.807v8.235H35.105Z" transform="translate(57.079 143.957)" fill="#161615"/><path d="M76.126,96.847l-4.887.486c-.924-2.776-3.214-4.49-6.869-4.49-4.228-.045-7.4,2.552-7.4,7,0,4.4,3.08,7.045,7.4,6.956,3.521-.045,5.769-1.452,6.825-4.359l4.932.483c-.969,5.507-6.473,8.148-11.756,8.193-6.827.042-12.683-3.655-12.683-11.273S57.542,88.526,64.369,88.57c5.283.042,10.787,2.686,11.756,8.277" transform="translate(84.039 144.01)" fill="#161615"/><path d="M68.853,99.843c0-7.618,5.859-11.315,12.728-11.273s12.287,3.655,12.287,11.273a11.314,11.314,0,0,1-.089,1.234H74.36c.528,3.876,3.521,5.945,7.353,5.9,3.39-.045,5.856-.882,6.956-3.965l4.89.441c-1.631,5.859-6.342,7.62-11.977,7.663-6.869.045-12.728-3.653-12.728-11.273m5.507,1.234c.659-2.376,1.759-2.818,3.784-2.818H88.978c-.528-4.052-3.479-5.725-7.266-5.772-3.611-.042-7.794,2.555-7.353,8.59" transform="translate(111.952 144.01)" fill="#161615"/><path d="M86.708,88.836h5.328v2.773a10.311,10.311,0,0,1-.575,3.261l.089.042a7.819,7.819,0,0,1,1.5-2.952,12.4,12.4,0,0,1,8.408-3.39c6.914.045,10.921,3.655,10.921,11.273s-4.007,11.273-10.921,11.273a12.6,12.6,0,0,1-8.408-3.39,7.611,7.611,0,0,1-1.5-2.907l-.089.045a9.813,9.813,0,0,1,.575,3.214v11.58H86.75Zm13.209,18.143c5.241-.045,7.177-2.6,7.177-7.135s-1.935-6.869-7.177-6.914c-4.1,0-7.88,2.689-7.88,6.914s3.784,7.135,7.88,7.135" transform="translate(140.983 144.01)" fill="#161615"/><path d="M105.418,93.065c2.2,0,4.58-3.879,4.58-7.135l5.328-.042a7.631,7.631,0,0,1-3.611,6.6,8.79,8.79,0,0,1-2.862.793v.089a16.892,16.892,0,0,1,2.994-.307h8.369v4.887h-6.079v10c0,1.893,1.014,2.334,2.424,2.334h4.756v4.932h-5.11c-5.9,0-7.353-2.6-7.353-8.059v-9.2h-4.49V93.065Z" transform="translate(169.688 139.65)" fill="#161615"/></g></g></svg>